HIERARCHY
ROOT Hips
{
	OFFSET 0.00000 0.00000 0.00000
	CHANNELS 6 Xposition Yposition Zposition Zrotation Yrotation Xrotation 
	JOINT LHipJoint
	{
		OFFSET 0 0 0
		CHANNELS 3 Zrotation Yrotation Xrotation
		JOINT LeftUpLeg
		{
			OFFSET 1.56857 -1.73443 1.15205
			CHANNELS 3 Zrotation Yrotation Xrotation
			JOINT LeftLeg
			{
				OFFSET 2.39362 -6.57643 0.00000
				CHANNELS 3 Zrotation Yrotation Xrotation
				JOINT LeftFoot
				{
					OFFSET 2.50952 -6.89485 0.00000
					CHANNELS 3 Zrotation Yrotation Xrotation
					JOINT LeftToeBase
					{
						OFFSET 0.17171 -0.47178 1.88682
						CHANNELS 3 Zrotation Yrotation Xrotation
						End Site
						{
							OFFSET 0.00000 -0.00000 0.98146
						}
					}
				}
			}
		}
	}
	JOINT RHipJoint
	{
		OFFSET 0 0 0
		CHANNELS 3 Zrotation Yrotation Xrotation
		JOINT RightUpLeg
		{
			OFFSET -1.28153 -1.73443 1.15205
			CHANNELS 3 Zrotation Yrotation Xrotation
			JOINT RightLeg
			{
				OFFSET -2.26861 -6.23296 0.00000
				CHANNELS 3 Zrotation Yrotation Xrotation
				JOINT RightFoot
				{
					OFFSET -2.54143 -6.98254 0.00000
					CHANNELS 3 Zrotation Yrotation Xrotation
					JOINT RightToeBase
					{
						OFFSET -0.23309 -0.64041 1.93119
						CHANNELS 3 Zrotation Yrotation Xrotation
						End Site
						{
							OFFSET -0.00000 -0.00000 1.02013
						}
					}
				}
			}
		}
	}
	JOINT LowerBack
	{
		OFFSET 0 0 0
		CHANNELS 3 Zrotation Yrotation Xrotation
		JOINT Spine
		{
			OFFSET -0.07096 2.10460 -0.27878
			CHANNELS 3 Zrotation Yrotation Xrotation
			JOINT Spine1
			{
				OFFSET -0.00826 2.13662 -0.08279
				CHANNELS 3 Zrotation Yrotation Xrotation
				JOINT Neck
				{
					OFFSET 0 0 0
					CHANNELS 3 Zrotation Yrotation Xrotation
					JOINT Neck1
					{
						OFFSET 0.03239 1.77799 0.24435
						CHANNELS 3 Zrotation Yrotation Xrotation
						JOINT Head
						{
							OFFSET 0.01026 1.74194 -0.49664
							CHANNELS 3 Zrotation Yrotation Xrotation
							End Site
							{
								OFFSET 0.00170 1.83057 -0.19653
							}
						}
					}
				}
				JOINT LeftShoulder
				{
					OFFSET 0 0 0
					CHANNELS 3 Zrotation Yrotation Xrotation
					JOINT LeftArm
					{
						OFFSET 3.19178 1.35907 -0.31412
						CHANNELS 3 Zrotation Yrotation Xrotation
						JOINT LeftForeArm
						{
							OFFSET 4.85247 -0.00000 -0.00000
							CHANNELS 3 Zrotation Yrotation Xrotation
							JOINT LeftHand
							{
								OFFSET 3.55584 -0.00000 0.00000
								CHANNELS 3 Zrotation Yrotation Xrotation
								JOINT LeftFingerBase
								{
									OFFSET 0 0 0
									CHANNELS 3 Zrotation Yrotation Xrotation
									JOINT LeftHandIndex1
									{
										OFFSET 0.69320 -0.00000 0.00000
										CHANNELS 3 Zrotation Yrotation Xrotation
										End Site
										{
											OFFSET 0.55888 -0.00000 0.00000
										}
									}
								}
								JOINT LThumb
								{
									OFFSET 0 0 0
									CHANNELS 3 Zrotation Yrotation Xrotation
									End Site
									{
										OFFSET 0.56741 -0.00000 0.56741
									}
								}
							}
						}
					}
				}
				JOINT RightShoulder
				{
					OFFSET 0 0 0
					CHANNELS 3 Zrotation Yrotation Xrotation
					JOINT RightArm
					{
						OFFSET -3.28999 1.24191 -0.26899
						CHANNELS 3 Zrotation Yrotation Xrotation
						JOINT RightForeArm
						{
							OFFSET -4.64462 -0.00000 0.00000
							CHANNELS 3 Zrotation Yrotation Xrotation
							JOINT RightHand
							{
								OFFSET -3.40703 -0.00000 0.00000
								CHANNELS 3 Zrotation Yrotation Xrotation
								JOINT RightFingerBase
								{
									OFFSET 0 0 0
									CHANNELS 3 Zrotation Yrotation Xrotation
									JOINT RightHandIndex1
									{
										OFFSET -0.61958 -0.00000 0.00000
										CHANNELS 3 Zrotation Yrotation Xrotation
										End Site
										{
											OFFSET -0.49952 -0.00000 0.00000
										}
									}
								}
								JOINT RThumb
								{
									OFFSET 0 0 0
									CHANNELS 3 Zrotation Yrotation Xrotation
									End Site
									{
										OFFSET -0.50715 -0.00000 0.50715
									}
								}
							}
						}
					}
				}
			}
		}
	}
}
MOTION
Frames: 13
Frame Time: .0083333
-20.5973 14.8111 1.6829 -24.0887 76.4645 -7.1959 0.0000 0.0000 0.0000 -11.2559 7.5434 -62.5830 15.6804 19.5466 77.2780 1.7163 -0.9671 -24.5003 0.7817 -5.6445 -15.7562 0.0000 0.0000 0.0000 18.1522 -4.8340 19.6672 -0.3712 -3.9132 10.8327 -2.4475 1.5542 -29.2014 -1.5207 7.7869 -22.0687 -1.7556 5.1836 16.9005 -1.8383 6.6980 6.0527 -2.2249 3.4243 -2.9205 5.1427 2.9087 -30.7474 -3.5788 2.7299 20.5820 -1.6837 1.1368 11.9119 0.0000 -0.0000 0.0000 -50.4425 41.3993 79.9714 49.4476 -52.7703 -25.7336 -0.0000 0.0000 -33.9683 31.2923 -13.2689 -7.9420 -7.1250 0.0000 -0.0000 2.6818 14.5643 -1.9234 0.0000 -0.0000 0.0000 82.2642 31.2184 58.1389 -84.2430 59.8744 -55.0164 0.0000 -0.0000 -19.5219 -33.7801 -28.7329 17.8266 7.1250 -0.0000 -0.0000 -3.9818 -63.3454 1.7738
-20.3205 14.8142 1.6641 -22.6667 76.5559 -5.1460 0.0000 0.0000 0.0000 -12.1560 7.3257 -61.2213 15.3604 19.4759 76.3201 1.9016 -2.0967 -25.5141 0.8812 -5.9844 -16.7393 0.0000 0.0000 0.0000 17.7263 -4.4734 18.5875 -0.5453 -4.7308 13.1422 -2.1804 0.7340 -27.7482 -1.1914 6.9263 -19.4974 -2.3123 5.1630 16.4878 -2.2023 6.5917 6.1026 -2.2340 3.3741 -2.6682 5.0554 2.9345 -30.5874 -3.4141 2.7499 19.9449 -1.5985 1.1607 11.6340 -0.0000 -0.0000 0.0000 -51.0306 40.8525 78.1148 49.7713 -52.9029 -25.9917 -0.0000 0.0000 -34.5752 32.4972 -13.3843 -8.3881 -7.1250 0.0000 -0.0000 3.4830 14.2458 -2.5235 -0.0000 -0.0000 0.0000 81.0542 30.2915 57.9792 -86.4773 59.9531 -56.9498 0.0000 -0.0000 -19.0312 -33.6463 -29.6260 18.2118 7.1250 -0.0000 -0.0000 -3.5065 -64.2849 1.6388
-20.0448 14.8242 1.6407 -22.1888 76.8259 -4.0586 0.0000 0.0000 0.0000 -12.6862 6.7341 -59.7098 14.9684 19.3819 75.1414 2.0787 -3.4965 -26.4073 0.5989 -4.9542 -13.7779 0.0000 0.0000 0.0000 17.6745 -4.0032 17.3149 -0.7781 -5.6318 15.7198 -1.8459 -0.5718 -25.9191 -0.8228 5.7877 -16.1698 -2.5245 4.9721 16.2336 -2.5770 6.3208 6.1899 -2.4277 3.2476 -2.4242 5.0047 3.0256 -30.5168 -3.1638 2.8164 19.2114 -1.4791 1.2196 11.3386 -0.0000 -0.0000 0.0000 -52.0870 39.6464 75.8139 49.5238 -52.8016 -25.7944 -0.0000 0.0000 -36.0014 33.6088 -13.1284 -8.5844 -7.1250 0.0000 -0.0000 4.2642 14.3660 -3.0815 -0.0000 -0.0000 0.0000 80.1484 29.3655 58.0327 -88.0847 59.9861 -58.3414 0.0000 -0.0000 -17.5727 -33.2096 -30.6224 18.4410 7.1250 -0.0000 -0.0000 -2.5366 -65.2414 1.2415
-19.7673 14.8450 1.6203 -21.9134 77.0403 -3.3342 0.0000 0.0000 0.0000 -13.2005 6.3492 -58.1354 14.6243 19.2926 74.1024 2.2460 -3.9860 -27.4016 0.5630 -4.8058 -13.3554 0.0000 0.0000 0.0000 18.0490 -2.9272 16.1071 -1.1032 -6.6738 18.7525 -1.5153 -2.2082 -24.1429 -0.4089 4.1052 -11.3728 -2.5602 4.8303 16.2326 -3.0864 6.1301 6.2592 -2.9018 3.1663 -2.2982 5.1432 3.0779 -30.4020 -2.7737 2.7186 18.4776 -1.3698 1.2388 11.0321 0.0000 -0.0000 0.0000 -52.8220 37.8930 73.7542 48.8554 -52.5233 -25.2629 -0.0000 0.0000 -37.5945 34.8784 -12.6227 -8.6611 -7.1250 0.0000 -0.0000 5.1863 14.7550 -3.7099 0.0000 -0.0000 0.0000 79.7411 27.9434 58.1873 -89.2368 59.9978 -59.3391 0.0000 -0.0000 -17.1738 -33.2223 -28.8882 17.5575 7.1250 -0.0000 -0.0000 -3.2019 -63.3597 1.4270
-19.4837 14.8657 1.6006 -20.9265 77.3290 -2.0642 0.0000 0.0000 0.0000 -13.9484 5.9862 -56.4264 14.2339 19.1835 72.9176 2.3715 -4.3924 -28.1202 0.5848 -4.8963 -13.6130 0.0000 0.0000 0.0000 18.2912 -1.7069 14.9007 -1.5309 -7.8118 22.1439 -1.1703 -4.0586 -22.2695 -0.0903 1.9381 -5.3347 -2.7615 4.6370 16.4578 -3.6027 5.8409 6.3402 -3.2975 3.0364 -2.2997 5.1387 3.1450 -30.4413 -2.2189 2.6634 17.9163 -1.1709 1.2875 10.8163 -0.0000 0.0000 0.0000 -53.7753 36.2087 71.2662 48.4635 -52.3567 -24.9523 -0.0000 0.0000 -38.6425 36.0345 -12.4376 -8.9046 -7.1250 0.0000 -0.0000 5.9908 14.7823 -4.2879 -0.0000 0.0000 0.0000 79.5705 26.2484 58.5437 -90.4742 59.9992 -60.4107 0.0000 -0.0000 -17.3011 -32.7411 -28.4892 17.0511 7.1250 -0.0000 -0.0000 -2.7147 -62.7908 1.1735
-19.1975 14.8826 1.5825 -19.8862 77.7439 -0.8074 0.0000 0.0000 0.0000 -14.6899 5.4669 -54.7051 13.8544 19.0693 71.7593 2.4626 -4.7367 -28.6240 0.5790 -4.8725 -13.5451 0.0000 0.0000 0.0000 18.4284 -0.5579 13.4696 -2.0648 -8.9998 25.7947 -0.7819 -6.1503 -20.0437 -0.0022 -0.2997 0.8236 -3.2524 4.4709 16.2070 -3.7476 5.6088 6.7445 -3.0898 2.9299 -1.7740 4.5677 3.0854 -30.1898 -1.6995 2.7070 16.9692 -0.8825 1.3348 10.4072 -0.0000 0.0000 0.0000 -55.4787 33.8914 68.6275 47.8768 -52.1025 -24.4885 -0.0000 0.0000 -38.9301 37.1558 -12.4184 -9.2561 -7.1250 0.0000 -0.0000 6.7464 14.6097 -4.8610 -0.0000 0.0000 0.0000 78.8389 24.6367 58.8268 -91.3828 59.9928 -61.1975 0.0000 -0.0000 -17.9137 -32.1154 -28.7738 16.8113 7.1250 -0.0000 -0.0000 -1.8144 -62.9292 0.7900
-18.9094 14.8991 1.5634 -19.4565 78.2887 -0.2259 0.0000 0.0000 0.0000 -15.2526 4.8060 -52.9876 13.5554 18.9736 70.8419 2.5321 -4.9804 -29.0062 0.5235 -4.6369 -12.8758 0.0000 0.0000 0.0000 18.6301 0.5362 11.7372 -2.7607 -10.2972 29.9447 -0.3735 -8.1392 -17.2722 -0.1327 -2.3479 6.4680 -3.3345 4.2460 16.8174 -4.0453 5.2597 6.6447 -3.3563 2.7644 -2.1859 4.0096 2.9300 -29.9930 -0.8593 2.5399 16.5582 -0.5191 1.3320 10.1982 -0.0000 0.0000 0.0000 -56.3736 31.8071 66.7231 47.3477 -51.8681 -24.0716 -0.0000 0.0000 -38.9545 37.7789 -12.1988 -9.3013 -7.1250 0.0000 -0.0000 7.1972 14.7661 -5.1668 -0.0000 0.0000 0.0000 78.7202 21.9357 59.1655 -91.7828 59.9880 -61.5439 0.0000 -0.0000 -18.2593 -32.0962 -28.5741 16.6987 7.1250 -0.0000 -0.0000 -1.8624 -62.7071 0.8012
-18.6151 14.9271 1.5150 -7.6839 78.8729 11.8217 0.0000 0.0000 0.0000 -18.6500 3.2489 -51.1025 13.1156 18.8235 69.4841 2.5726 -5.0943 -29.2315 0.5234 -4.6363 -12.8741 0.0000 0.0000 0.0000 15.6604 1.1833 9.1667 -3.6312 -11.6528 34.5145 -0.0528 -8.9010 -13.6130 -0.1591 -2.5701 7.0841 -5.0959 3.9409 16.8914 -5.0767 4.6044 6.7141 -3.3529 2.4522 -2.1998 3.8773 2.8804 -30.1265 -0.2969 2.3957 16.1776 -0.3189 1.3312 10.0679 -0.0000 -0.0000 0.0000 -57.3894 29.3890 64.1825 46.8701 -51.6524 -23.6965 -0.0000 0.0000 -38.5522 37.6076 -12.3845 -9.3811 -7.1250 0.0000 -0.0000 7.0540 14.5699 -5.0921 -0.0000 -0.0000 0.0000 78.8734 19.4198 59.6071 -91.5013 59.9915 -61.3002 0.0000 -0.0000 -18.8845 -33.0216 -28.2931 17.1221 7.1250 -0.0000 -0.0000 -3.1388 -62.6533 1.3468
-18.3327 14.9531 1.5074 -7.2724 79.6718 12.2630 0.0000 0.0000 0.0000 -18.8525 2.4810 -49.4971 12.9657 18.7697 69.0190 2.5644 -4.9939 -29.1976 0.5799 -4.8762 -13.5558 0.0000 0.0000 0.0000 16.1533 2.4532 6.9316 -4.6976 -13.0350 39.4995 0.2529 -10.3203 -9.4063 -0.3008 -3.5265 9.7483 -5.2665 3.6041 16.8315 -5.0714 4.2233 7.2374 -3.1509 2.2716 -1.6257 3.6881 2.8899 -30.2780 -0.1088 2.4487 15.4908 -0.2140 1.3666 9.8377 -0.0000 0.0000 0.0000 -59.0082 26.3175 61.4597 46.1251 -51.3079 -23.1136 -0.0000 0.0000 -37.0465 37.5996 -12.8852 -9.7443 -7.1250 0.0000 -0.0000 6.9714 13.9600 -5.1225 -0.0000 0.0000 0.0000 78.4914 17.3601 59.9348 -90.7810 59.9977 -60.6763 0.0000 -0.0000 -19.9964 -33.0769 -28.6048 17.3190 7.1250 -0.0000 -0.0000 -3.1081 -63.0097 1.3597
-18.0733 14.9882 1.5458 -19.7751 80.7577 -0.2997 0.0000 0.0000 0.0000 -16.0845 2.2655 -48.3407 13.0707 18.8075 69.3450 2.5059 -5.4195 -28.7852 0.5080 -4.5690 -12.6832 0.0000 0.0000 0.0000 19.6540 4.0862 4.5890 -6.0692 -14.4951 45.2588 0.3369 -10.3415 -5.4590 -1.0235 -6.4358 18.0543 -4.0049 3.4008 18.5471 -4.2549 3.9839 6.8316 -3.0850 2.1502 -2.9496 3.3004 2.7178 -30.0925 0.1773 2.3176 15.4917 -0.0740 1.3181 9.7976 0.0000 0.0000 0.0000 -60.0132 24.1500 60.1265 45.5286 -51.0248 -22.6490 -0.0000 0.0000 -34.8994 37.8087 -13.2246 -10.0655 -7.1250 0.0000 -0.0000 7.0570 13.5060 -5.2546 0.0000 0.0000 0.0000 78.2377 13.7568 60.2143 -89.7100 59.9997 -59.7489 0.0000 -0.0000 -20.8024 -32.1064 -29.0255 16.9324 7.1250 -0.0000 -0.0000 -1.7092 -63.1997 0.7551
-17.7848 15.0040 1.5156 -12.9417 81.4179 6.2504 0.0000 0.0000 0.0000 -17.5971 1.4442 -46.1854 12.7786 18.7007 68.4363 2.4709 -5.9016 -28.5126 0.4971 -4.5204 -12.5455 0.0000 0.0000 0.0000 18.3226 4.8448 2.0736 -7.4822 -15.7249 50.6755 0.1585 -7.1440 -1.3161 -1.3834 -7.4422 21.0322 -5.0129 3.2335 19.3311 -4.5190 3.5488 6.8825 -2.7630 1.9437 -3.3418 3.0650 2.5924 -29.7070 0.1746 2.2650 15.0117 -0.0536 1.2767 9.5592 -0.0000 0.0000 0.0000 -61.1872 21.5574 58.3157 45.2093 -50.8706 -22.4010 -0.0000 0.0000 -32.8823 37.7006 -13.4987 -10.2269 -7.1250 0.0000 -0.0000 6.9422 13.1928 -5.2138 -0.0000 0.0000 0.0000 78.2086 10.6614 60.4640 -87.4680 59.9758 -57.8074 0.0000 -0.0000 -21.4518 -30.7591 -29.2161 16.1984 7.1250 -0.0000 -0.0000 0.0816 -63.0359 -0.0357
-17.4939 15.0165 1.5123 -8.0639 82.5682 10.9309 0.0000 0.0000 0.0000 -18.5496 0.2423 -44.0888 12.5760 18.6237 67.8034 2.4796 -6.2516 -28.5248 0.5822 -4.8857 -13.5828 0.0000 0.0000 0.0000 17.6188 5.0626 -0.6106 -8.7944 -16.6735 55.3762 0.0115 -2.8502 1.2195 -0.6625 -5.2056 14.4959 -5.6554 2.8519 19.8716 -4.5671 2.9323 7.0629 -2.3431 1.6500 -3.4523 2.9039 2.5191 -29.4457 0.0428 2.2748 14.5241 -0.0790 1.2535 9.3426 -0.0000 -0.0000 0.0000 -62.4339 18.7248 56.3416 45.0018 -50.7694 -22.2402 -0.0000 0.0000 -30.9224 37.5426 -13.9141 -10.4702 -7.1250 0.0000 -0.0000 6.7721 12.7187 -5.1519 -0.0000 -0.0000 0.0000 78.2477 7.6386 60.5000 -84.4806 59.8846 -55.2219 0.0000 -0.0000 -21.9136 -29.0341 -29.6115 15.3378 7.1250 -0.0000 -0.0000 2.4180 -62.9892 -1.0564
-17.2050 15.0246 1.4993 0.9006 83.4222 19.5546 0.0000 0.0000 0.0000 -19.9316 -0.6854 -41.7292 12.3098 18.5185 66.9674 2.4831 -6.5981 -28.5098 0.6237 -5.0536 -14.0616 0.0000 0.0000 0.0000 16.5515 5.2632 -3.2954 -10.1847 -17.5124 60.1038 -0.0092 0.2027 1.9014 -0.0311 -1.1380 3.1286 -6.4983 2.5511 20.5551 -4.6940 2.3640 7.2280 -1.9074 1.3839 -3.6382 2.5718 2.3894 -28.9882 0.0861 2.2434 13.9378 -0.0243 1.2239 9.0571 -0.0000 0.0000 0.0000 -63.5878 15.8185 54.7110 44.9290 -50.7336 -22.1838 -0.0000 0.0000 -29.0409 37.7502 -14.2116 -10.7630 -7.1250 0.0000 -0.0000 6.8608 12.3152 -5.2784 -0.0000 0.0000 0.0000 78.3967 4.6171 60.3063 -80.6867 59.6697 -51.9434 0.0000 -0.0000 -21.9024 -28.2556 -30.1114 15.0897 7.1250 -0.0000 -0.0000 3.6352 -63.3051 -1.6158
